# xmcd CD database file
#
# Track frame offsets:
#	150
#	13015
#	32015
#	73413
#	133673
#	167622
#	188643
#
# Disc length: 2804 seconds
#
# Revision: 1
# Processed by: cddbd v1.5.2PL0 Copyright (c) Steve Scherf et al.
# Submitted via: CD2WAV32(JP) R3.22
#
DISCID=5b0af207
DTITLE=Xs[萩原雪歩(浅倉杏美)・星井美希(長谷川明子)・菊地真(平田宏美)・水瀬伊織(釘宮理恵)] - THE IDOLM@STER MILLION THE@TER WAVE 03 Xs
DYEAR=2019
DGENRE=Game
TTITLE0=ドラマ『ミッドナイト・ガールズ・パーティー』
TTITLE1=ラビットファー
TTITLE2=ドラマ『小悪魔の誘惑』
TTITLE3=ドラマ『ガールズトーーーク!』
TTITLE4=ドラマ『おひとりさまパーティー?』
TTITLE5=Dreamy Dream
TTITLE6=ドラマ『グンナイ、ガールズ』
EXTD=
EXTT0=
EXTT1=
EXTT2=
EXTT3=
EXTT4=
EXTT5=
EXTT6=
PLAYORDER=
